# xmcd
#
# Track frame offsets: 
#        150
#        13881
#        32251
#        54642
#        72438
#        90151
#        119536
#        134552
#        153326
#        170878
#        194561
#        219547
#
# Disc length: 3225 seconds
#
# Revision: 0
# Processed by: cddbd v1.5.2PL0 Copyright (c) Steve Scherf et al.
# Submitted via: ExactAudioCopy v1.3
#
DISCID=ad0c970c
DTITLE=Hurricane Ruth - Ain't Ready for the Grave
DYEAR=2017
DGENRE=Blues
TTITLE0=Barrelhouse Joe's
TTITLE1=Hard Rockin' Woman
TTITLE2=Far from the Cradle
TTITLE3=Estilene
TTITLE4=Beekeeper
TTITLE5=My Heart Aches for You
TTITLE6=Cheating Blues
TTITLE7=Whole Lotta Rosie
TTITLE8=For a Change
TTITLE9=Let Me Be the One
TTITLE10=Good Stuff
TTITLE11=Yes I Know
EXTD=
EXTT0=
EXTT1=
EXTT2=
EXTT3=
EXTT4=
EXTT5=
EXTT6=
EXTT7=
EXTT8=
EXTT9=
EXTT10=
EXTT11=
PLAYORDER=
